<svg fill="#f27900" height="256px" width="256px" version="1.1" id="Layer_1" xmlns="http://www.w3.org/2000/svg" xmlns:xlink="http://www.w3.org/1999/xlink" viewBox="-33 -33 396.00 396.00" xml:space="preserve" stroke="#f27900"><g id="SVGRepo_bgCarrier" stroke-width="0" transform="translate(37.95,37.95), scale(0.77)"><rect x="-33" y="-33" width="396.00" height="396.00" rx="75.24" fill="#ffffff" strokewidth="0"></rect></g><g id="SVGRepo_tracerCarrier" stroke-linecap="round" stroke-linejoin="round" stroke="#cccccc" stroke-width="0.66"></g><g id="SVGRepo_iconCarrier"> <path id="XMLID_311_" d="M325.607,84.667L245.333,4.394c-2.813-2.813-6.628-4.393-10.606-4.393H195.02 C195.013,0.001,195.007,0,195,0H75c-0.006,0-0.013,0.001-0.019,0.001H15c-8.284,0-15,6.716-15,15V315c0,8.284,6.716,15,15,15h60h70 h45.332H255h60c8.284,0,15-6.716,15-15V95.274C330,91.295,328.42,87.48,325.607,84.667z M90,30.001h90V110H90V30.001z M30,30.001h30 V125c0,8.284,6.716,15,15,15h120c8.284,0,15-6.716,15-15V30.001h18.513L300,101.487v52.634l-19.728-19.728 c-5.857-5.858-15.355-5.858-21.213,0L203.454,190H75c-8.284,0-15,6.716-15,15v95H30V30.001z M90,220h83.454l-39.06,39.06 c-2.813,2.813-4.394,6.628-4.394,10.606V300H90V220z M160,300v-24.12l109.666-109.667l24.121,24.12L184.12,300H160z M255,300 h-28.455L300,226.546V300H255z"></path> </g></svg>